# xmcd CD database file
# Copyright (C) 1995 Ti Kan
#
# Track frame offsets:
#	175
#	15585
#	27250
#	41325
#	54807
#	69880
#	90802
#	111137
#	131507
#	144787
#	155857
#
# Disc length: 2326 seconds
#
# Revision: 1
# Processed by: cddbd v1.4b41PL1 Copyright (c) Steve Scherf et al.
# Submitted via: xmcd 1.4
#
DISCID=7909140b
DTITLE=Rory Block - Mama's Blues
DYEAR=1900
DGENRE=
TTITLE0=Terraplane Blues
TTITLE1=Bye Bye Blues
TTITLE2=Big Road Blues
TTITLE3=Do Your Duty
TTITLE4=The Spirit Returns
TTITLE5=Got To Shine
TTITLE6=Mama's Blues
TTITLE7=Ain't No Shame
TTITLE8=Hawkins Blues
TTITLE9=Weepin' Willow Blues
TTITLE10=Sing Good News
EXTD=
EXTT0=
EXTT1=
EXTT2=
EXTT3=
EXTT4=
EXTT5=
EXTT6=
EXTT7=
EXTT8=
EXTT9=
EXTT10=
PLAYORDER=
